<svg width="184" height="341" viewBox="0 0 184 341" fill="none" xmlns="http://www.w3.org/2000/svg">
<g opacity="0.3">
<path d="M183.822 29.0886C183.822 36.5399 181.028 43.9912 175.368 49.6513L-37.5668 262.586C-48.887 273.906 -67.3003 273.906 -78.6205 262.586C-84.1373 257.069 -87.1465 249.761 -87.1465 242.023C-87.1465 234.285 -84.1373 226.977 -78.6205 221.461L134.314 8.52597C139.831 3.00915 147.067 -2.79297e-06 154.877 -2.8861e-06C162.615 -2.97837e-06 169.923 3.00915 175.44 8.52597C181.028 14.2577 183.822 21.6373 183.822 29.0886ZM-85.7135 242.023C-85.7135 249.403 -82.8477 256.353 -77.6174 261.511C-66.8704 272.258 -49.3169 272.258 -38.5699 261.511L174.365 48.5766C185.112 37.8296 185.112 20.2761 174.365 9.52902C169.135 4.29879 162.185 1.43292 154.877 1.43292C147.497 1.43292 140.548 4.29879 135.389 9.52902L-77.6174 222.535C-82.8477 227.694 -85.7135 234.644 -85.7135 242.023Z" fill="#00F0B5"/>
<path d="M168.969 99.0115C168.969 106.463 166.175 113.914 160.514 119.574L-52.4203 332.509C-63.7405 343.829 -82.1538 343.829 -93.474 332.509C-98.9908 326.992 -102 319.684 -102 311.946C-102 304.208 -98.9908 296.9 -93.474 291.384L119.461 78.4488C124.978 72.932 132.214 69.9228 140.023 69.9228C147.761 69.9228 155.069 72.932 160.586 78.4488C166.175 84.1806 168.969 91.5602 168.969 99.0115ZM-100.567 311.946C-100.567 319.326 -97.7012 326.276 -92.471 331.434C-81.7239 342.181 -64.1704 342.181 -53.4234 331.434L159.511 118.499C170.258 107.752 170.258 90.1989 159.511 79.4519C154.281 74.2216 147.331 71.3558 140.023 71.3558C132.644 71.3558 125.694 74.2216 120.535 79.4519L-92.471 292.458C-97.7012 297.617 -100.567 304.567 -100.567 311.946Z" fill="#00F0B5"/>
</g>
</svg>
