<svg width="14" height="14" viewBox="0 0 14 14" fill="none" xmlns="http://www.w3.org/2000/svg">
<path fill-rule="evenodd" clip-rule="evenodd" d="M7.99935 11.5837C8.58268 12.0003 9.33268 11.667 9.33268 10.917V7.16699L6.24935 10.2503L7.99935 11.5837Z" fill="white"/>
<path fill-rule="evenodd" clip-rule="evenodd" d="M13.2494 0.416992C12.916 0.0836589 12.416 0.0836589 12.0827 0.416992L9.33268 3.16699V1.08366C9.33268 0.416992 8.49935 0.000325523 7.99935 0.416992L5.66602 2.33366C5.33268 2.50033 4.99935 2.66699 4.58268 2.66699H2.66602C1.74935 2.66699 0.999349 3.41699 0.999349 4.33366V7.66699C0.999349 8.58366 1.74935 9.33366 2.66602 9.33366H3.16602L0.416016 12.0837C0.0826823 12.417 0.0826823 12.917 0.416016 13.2503C0.749349 13.5837 1.24935 13.5837 1.58268 13.2503L13.2494 1.58366C13.5827 1.25033 13.5827 0.750326 13.2494 0.416992Z" fill="white"/>
</svg>
